<?xml version="1.0" standalone="no"?>
<!DOCTYPE svg PUBLIC "-//W3C//DTD SVG 20010904//EN"
 "http://www.w3.org/TR/2001/REC-SVG-20010904/DTD/svg10.dtd">
<svg version="1.0" xmlns="http://www.w3.org/2000/svg"
 width="993.000000pt" height="993.000000pt" viewBox="0 0 993.000000 993.000000"
 preserveAspectRatio="xMidYMid meet">
<metadata>
Created by potrace 1.14, written by Peter Selinger 2001-2017
</metadata>
<g transform="translate(0.000000,993.000000) scale(0.100000,-0.100000)"
fill="#000000" stroke="none">
<path d="M5030 9368 c-217 -219 -515 -518 -662 -665 l-268 -268 46 -175 c25
-96 47 -182 49 -190 2 -8 25 -89 50 -180 91 -322 256 -925 292 -1065 17 -66
25 -56 -410 -493 -818 -822 -1073 -1077 -1094 -1095 -21 -18 -26 -17 -215 33
-377 102 -414 112 -463 125 -27 7 -178 48 -335 90 -157 42 -292 79 -300 80
-26 6 -121 33 -220 63 -53 16 -115 28 -138 28 -42 -1 -42 -1 -698 -655 l-656
-655 6 -35 c3 -20 42 -169 86 -331 45 -162 97 -353 116 -425 19 -71 38 -143
43 -160 5 -16 33 -118 61 -225 29 -107 66 -244 82 -305 16 -60 31 -117 33
-125 14 -64 49 -179 60 -196 8 -12 24 -24 37 -27 13 -3 41 -11 63 -17 22 -6
51 -13 64 -16 13 -3 33 -10 43 -15 11 -6 22 -8 25 -5 3 3 21 -1 40 -9 19 -8
37 -14 41 -14 4 1 9 0 12 -1 3 -1 12 -3 20 -5 8 -2 33 -9 55 -15 22 -6 51 -13
65 -16 14 -3 49 -12 79 -21 29 -8 61 -17 70 -18 9 -2 16 -4 16 -5 0 -1 7 -3
15 -5 8 -1 42 -10 75 -19 79 -22 95 -26 125 -32 14 -2 32 -7 40 -11 8 -3 24
-8 35 -10 27 -6 37 -9 55 -16 17 -6 69 -20 85 -22 6 -1 17 -4 25 -7 17 -6 100
-30 115 -34 32 -6 104 -26 125 -34 14 -6 34 -11 45 -13 11 -2 40 -9 65 -16 25
-7 52 -15 60 -16 8 -2 42 -11 75 -20 131 -36 126 -35 205 -50 l36 -7 404 407
c758 762 730 735 730 700 0 -21 0 -20 11 -57 6 -18 14 -46 19 -63 5 -16 22
-77 39 -135 17 -58 31 -115 31 -127 0 -21 18 -28 115 -48 11 -2 45 -11 75 -20
30 -9 64 -18 75 -21 30 -8 36 -10 85 -24 48 -14 60 -18 88 -24 9 -3 17 -5 17
-6 0 -2 19 -7 58 -15 15 -3 47 -12 70 -19 23 -8 56 -17 72 -21 17 -5 36 -10
43 -12 6 -1 18 -5 25 -6 6 -2 26 -7 42 -11 17 -4 37 -10 45 -12 8 -3 16 -5 17
-5 2 0 17 -5 35 -10 32 -10 80 -19 106 -21 6 -1 12 -8 12 -17 0 -9 -157 -171
-350 -361 -230 -226 -350 -352 -350 -365 0 -11 5 -36 10 -55 6 -19 13 -48 16
-65 5 -32 23 -100 32 -125 3 -8 6 -22 8 -30 4 -23 24 -97 46 -174 11 -38 21
-76 23 -85 2 -9 22 -83 45 -166 42 -151 64 -232 115 -425 16 -58 31 -108 35
-113 3 -4 83 -27 176 -52 93 -24 183 -49 199 -54 30 -10 292 -79 323 -86 22
-4 185 -48 347 -92 72 -20 148 -40 170 -45 l40 -10 455 457 c250 251 456 457
458 459 1 1 -16 68 -38 147 -22 79 -58 209 -80 289 -22 80 -42 154 -45 165 -2
11 -9 38 -15 60 -6 22 -13 51 -16 65 -3 14 -17 66 -31 115 -14 50 -27 98 -29
109 -2 10 -10 42 -18 70 -19 67 -26 116 -17 116 7 0 914 907 1358 1357 88 90
167 163 175 163 8 0 38 -7 68 -16 29 -9 61 -17 69 -19 9 -2 68 -17 131 -35
194 -53 264 -72 280 -75 18 -4 224 -60 300 -81 30 -9 71 -19 90 -24 19 -4 66
-17 105 -28 54 -16 73 -18 84 -9 27 22 896 898 899 906 1 5 -7 44 -18 87 -12
44 -36 135 -54 204 -33 125 -230 864 -248 930 l-9 35 -127 33 c-70 18 -161 42
-202 53 -41 11 -91 24 -111 28 -19 4 -40 10 -45 14 -6 3 -21 8 -35 10 -13 3
-44 10 -69 17 -25 7 -53 14 -62 15 -9 2 -41 11 -70 19 -29 9 -161 45 -293 80
l-240 63 -357 -359 c-196 -197 -359 -354 -363 -348 -3 5 -8 18 -10 27 -2 10
-11 45 -20 78 -9 33 -18 69 -20 79 -3 10 -9 33 -15 51 -6 18 -13 41 -15 51 -5
21 -33 131 -40 154 -2 8 -20 74 -40 145 -20 72 -38 138 -40 148 -2 10 -6 26
-9 35 -3 9 -8 28 -10 42 -34 158 -31 155 -123 183 -43 14 -94 28 -113 32 -19
4 -62 15 -95 26 -33 10 -76 21 -95 24 -19 3 -36 8 -39 11 -2 2 195 204 440
448 244 244 474 474 510 512 37 38 92 93 123 123 42 39 55 58 50 70 -4 9 -16
45 -26 81 -10 36 -20 72 -23 80 -9 32 -37 136 -40 150 -2 8 -13 47 -24 85 -11
39 -36 131 -55 205 -20 74 -45 169 -57 210 -11 41 -22 86 -25 100 -2 14 -9 36
-14 50 -5 14 -12 36 -14 50 -3 14 -5 25 -6 25 -1 0 -3 7 -5 15 -1 8 -13 51
-24 95 -20 72 -25 93 -36 145 -2 8 -4 15 -5 15 -1 0 -4 9 -6 20 -6 26 -9 35
-17 60 -3 11 -9 34 -12 50 -9 46 -10 49 -18 61 -4 7 -9 29 -13 50 -3 22 -10
47 -15 57 -5 9 -7 17 -5 17 3 0 -1 18 -9 40 -8 22 -14 41 -14 43 1 1 -4 21
-10 44 -11 40 -15 43 -64 57 -111 31 -443 118 -466 122 -14 3 -27 7 -31 9 -3
2 -69 20 -145 40 -77 20 -151 40 -165 44 -14 5 -86 25 -160 45 -74 19 -253 67
-397 106 -144 39 -270 73 -280 75 -10 2 -40 10 -68 17 l-50 13 -395 -397z
m565 108 c28 -8 218 -58 360 -96 697 -184 1016 -272 1068 -292 15 -6 28 -17
28 -24 2 -17 4 -24 12 -44 4 -8 8 -26 11 -40 2 -14 11 -45 19 -70 8 -25 24
-83 37 -130 12 -47 25 -92 28 -100 6 -18 9 -29 15 -55 2 -11 7 -27 10 -35 5
-14 17 -65 18 -75 0 -3 6 -23 14 -46 9 -23 17 -51 19 -63 2 -12 10 -41 17 -66
7 -25 13 -48 15 -52 1 -5 2 -9 4 -10 1 -2 3 -12 5 -23 2 -11 17 -69 34 -130
18 -60 34 -119 36 -131 3 -11 18 -72 35 -135 17 -63 33 -123 36 -134 2 -11 11
-47 19 -80 9 -33 17 -71 19 -85 4 -22 -84 -113 -650 -676 -360 -358 -654 -655
-654 -661 0 -5 28 -18 63 -28 34 -9 73 -21 87 -25 14 -5 113 -32 220 -60 107
-29 214 -58 238 -66 23 -8 49 -14 56 -14 7 0 18 -17 25 -37 9 -30 80 -297 97
-363 9 -36 64 -238 73 -267 5 -18 7 -33 4 -33 -3 0 -1 -6 4 -12 10 -13 39
-137 35 -150 -1 -5 2 -8 7 -8 5 0 11 -15 14 -32 3 -18 13 -60 22 -93 9 -33 19
-67 21 -75 2 -8 11 -42 19 -75 9 -33 18 -67 20 -75 2 -8 4 -16 4 -17 1 -2 1
-5 1 -8 1 -3 7 -23 15 -46 8 -22 14 -43 14 -47 -1 -4 0 -9 1 -12 1 -3 3 -12 5
-20 2 -8 11 -42 21 -75 9 -33 18 -67 19 -75 2 -8 4 -15 5 -15 1 0 3 -9 5 -21
3 -11 28 -105 56 -209 28 -104 53 -196 54 -204 2 -9 4 -17 4 -18 1 -2 1 -6 2
-10 1 -5 5 -15 9 -23 4 -8 11 -33 14 -54 l7 -40 -771 -769 c-602 -601 -774
-767 -788 -762 -9 4 -33 11 -53 15 -19 3 -40 10 -46 13 -7 4 -24 9 -40 12 -15
2 -82 18 -148 35 -66 18 -127 33 -135 35 -8 2 -69 18 -135 35 -66 18 -127 34
-135 35 -8 2 -16 4 -17 4 -2 1 -4 1 -5 1 -2 0 -25 6 -53 14 -27 8 -93 26 -145
40 -52 14 -122 32 -155 41 -33 9 -68 18 -77 21 -10 2 -26 6 -35 8 -15 4 -82
22 -153 41 -8 3 -35 9 -60 15 -25 6 -52 13 -60 17 -18 8 -15 7 -65 18 -47 10
-54 12 -57 15 -2 1 -10 3 -18 5 -8 2 -58 16 -110 30 -52 15 -102 29 -110 31
-13 2 -77 21 -249 73 -30 9 -35 24 -106 291 -30 113 -59 221 -65 240 -5 19
-16 61 -25 93 -9 31 -19 57 -23 57 -4 0 -302 -294 -662 -654 -359 -360 -658
-652 -664 -651 -6 2 -24 6 -41 9 -16 3 -48 10 -70 16 -41 11 -65 17 -100 25
-11 2 -47 12 -80 21 -33 9 -67 18 -75 19 -8 2 -16 4 -17 4 -2 1 -5 1 -8 2 -2
0 -44 12 -92 26 -49 14 -95 26 -103 27 -8 1 -25 6 -37 10 -12 4 -30 9 -40 11
-10 2 -61 16 -113 30 -52 15 -104 28 -116 31 -12 2 -40 10 -63 18 -22 9 -41
13 -41 9 0 -3 -6 0 -13 6 -8 6 -16 9 -19 6 -2 -3 -31 4 -64 14 -51 16 -154 45
-204 56 -8 2 -16 4 -17 4 -2 1 -5 1 -8 1 -3 1 -22 7 -44 15 -22 7 -42 11 -45
8 -3 -4 -6 -2 -6 3 0 5 -8 10 -19 11 -53 4 -102 25 -111 47 -4 13 -29 101 -54
197 -24 96 -51 199 -59 229 -46 171 -74 277 -127 475 -32 121 -81 306 -109
410 -27 105 -52 197 -56 206 -4 10 170 190 555 574 308 308 567 562 576 563 9
2 75 -12 147 -32 73 -20 200 -54 282 -77 83 -22 155 -42 160 -43 6 -2 24 -6
40 -10 39 -10 200 -53 245 -66 19 -6 154 -42 300 -81 146 -38 311 -83 366 -99
56 -17 111 -30 121 -30 13 0 327 307 879 860 472 473 861 865 863 871 3 11 -1
30 -45 189 -12 47 -48 180 -79 295 -168 627 -176 656 -259 950 -8 28 -25 92
-37 143 l-22 93 79 80 c43 43 295 297 559 564 l480 484 45 -3 c25 -3 54 -7 65
-10z m2739 -3852 c133 -36 266 -72 296 -80 30 -9 62 -17 70 -19 8 -3 31 -9 50
-14 62 -16 224 -60 269 -73 43 -13 45 -15 68 -83 21 -66 25 -80 37 -131 2 -12
13 -52 25 -90 42 -146 177 -674 176 -689 -1 -5 -162 -171 -358 -369 -352 -354
-357 -359 -389 -352 -44 10 -47 10 -163 41 -55 14 -127 33 -160 41 -33 9 -67
18 -75 22 -8 3 -25 7 -37 9 -17 3 -403 110 -504 140 -14 4 -59 125 -73 195 -2
7 -5 20 -8 28 -10 25 -63 216 -72 258 -2 9 -10 37 -17 62 -7 25 -14 53 -15 62
0 9 -6 30 -12 45 -9 26 -30 100 -36 133 -2 8 -6 22 -9 30 -5 14 -22 88 -31
135 -2 11 -6 25 -8 32 -3 13 708 733 725 733 6 0 119 -30 251 -66z m-3474
-3225 c76 -16 90 -19 148 -35 32 -8 64 -17 72 -19 8 -2 27 -8 43 -14 15 -6 27
-9 27 -6 0 2 30 -5 68 -16 37 -11 81 -23 97 -26 17 -3 38 -9 48 -14 9 -5 17
-7 17 -5 0 3 19 -2 42 -10 23 -8 53 -16 68 -19 14 -3 55 -14 89 -25 35 -11 69
-20 76 -20 19 0 118 -32 133 -43 6 -5 12 -19 12 -30 0 -11 7 -43 15 -71 17
-54 139 -491 186 -666 29 -105 31 -114 44 -181 l7 -37 -361 -361 -361 -362
-308 81 c-169 45 -336 89 -372 100 -36 10 -120 32 -187 50 l-122 33 -15 51
c-8 28 -33 123 -56 211 -23 88 -50 189 -60 225 -10 36 -27 101 -39 145 -11 44
-35 131 -52 194 -17 63 -33 125 -35 139 -4 20 48 77 353 382 197 197 363 359
368 359 6 0 30 -4 55 -10z"/>
<path d="M5244 9018 c-168 -167 -391 -387 -495 -491 -186 -182 -190 -188 -184
-220 4 -17 32 -124 62 -237 50 -188 120 -454 128 -490 2 -8 18 -69 35 -135 17
-66 33 -130 36 -143 2 -12 25 -93 49 -178 25 -86 45 -158 45 -160 0 -19 54 29
263 237 133 132 349 347 480 477 169 168 240 233 248 225 6 -6 33 -93 60 -194
27 -101 56 -208 65 -237 8 -29 17 -61 19 -70 2 -9 13 -55 25 -102 12 -47 24
-93 26 -104 2 -10 11 -44 20 -75 14 -50 60 -222 69 -261 2 -8 13 -49 24 -90
12 -41 23 -84 26 -94 2 -10 10 -34 16 -53 l11 -35 114 114 c62 62 289 288 504
503 311 310 390 394 386 410 -3 11 -6 23 -6 27 0 4 -7 23 -15 42 -8 18 -12 36
-9 39 3 3 2 12 -2 19 -5 7 -17 45 -27 83 -9 39 -19 78 -22 88 -3 9 -7 26 -10
37 -3 11 -7 29 -10 40 -12 47 -15 58 -30 115 -9 33 -18 67 -21 75 -2 8 -8 33
-14 55 -6 22 -13 49 -15 60 -2 11 -8 34 -15 50 -6 17 -11 31 -11 33 1 1 1 3 0
5 -3 9 -9 36 -14 62 -3 17 -8 37 -11 45 -4 8 -14 47 -24 85 -10 39 -28 106
-39 150 -12 44 -23 89 -26 100 -7 35 -34 127 -37 130 -2 1 -68 19 -148 40 -80
20 -188 48 -240 61 -52 14 -183 48 -290 75 -107 28 -224 58 -260 68 -36 10
-119 33 -185 51 -66 18 -145 41 -176 51 -30 11 -59 19 -63 19 -4 0 -144 -136
-312 -302z m511 211 c83 -22 166 -44 185 -49 19 -5 94 -25 165 -45 72 -19 138
-38 147 -40 9 -2 51 -13 93 -25 42 -12 84 -23 93 -25 70 -17 412 -112 416
-116 3 -3 -176 -187 -398 -410 -466 -466 -525 -524 -530 -518 -2 2 -14 42 -25
89 -12 47 -30 119 -42 160 -11 41 -22 84 -24 95 -3 11 -21 79 -40 150 -20 72
-37 137 -39 145 -9 35 -157 597 -162 613 -3 9 -2 17 3 17 4 0 76 -19 158 -41z
m-186 -27 c6 -26 22 -90 36 -142 14 -52 28 -102 30 -111 4 -20 67 -258 102
-384 13 -49 33 -124 44 -165 10 -41 21 -82 23 -90 3 -8 21 -78 41 -155 20 -77
39 -143 42 -147 7 -13 -8 -29 -20 -21 -7 4 -16 8 -22 9 -14 3 -57 12 -80 18
-11 2 -41 11 -67 19 -27 8 -48 13 -48 11 0 -3 -9 0 -21 6 -11 6 -28 13 -37 15
-38 8 -111 26 -182 46 -41 11 -82 22 -90 24 -8 2 -16 4 -17 4 -2 1 -5 1 -8 2
-2 0 -28 7 -57 15 -29 8 -114 30 -188 50 -74 19 -142 38 -150 41 -8 3 -21 7
-29 9 -48 10 -118 28 -126 32 -5 3 -16 7 -25 8 -27 2 -100 27 -100 34 0 6 268
275 765 768 88 87 163 157 167 155 3 -2 11 -25 17 -51z m1327 -311 c-4 -5 -3
-11 2 -13 6 -2 43 -136 67 -241 2 -10 7 -27 10 -37 3 -10 8 -29 11 -42 9 -39
12 -53 14 -53 1 0 3 -7 5 -15 2 -8 18 -69 36 -135 17 -66 32 -128 33 -137 0
-10 4 -18 8 -18 4 0 7 -3 7 -7 -1 -5 0 -10 1 -13 1 -3 3 -14 5 -25 2 -11 20
-81 40 -155 44 -165 45 -171 50 -190 2 -8 4 -17 5 -20 1 -3 2 -9 1 -14 -1 -4
4 -14 10 -22 6 -8 9 -14 6 -14 -3 0 1 -21 9 -47 21 -70 20 -73 -23 -61 -21 6
-45 13 -53 16 -14 5 -24 8 -52 15 -7 2 -31 7 -53 12 -22 4 -47 11 -56 16 -9 4
-27 10 -40 12 -13 3 -44 10 -69 17 -43 12 -53 14 -100 24 -11 3 -24 7 -28 10
-5 3 -19 7 -33 10 -13 3 -58 15 -99 26 -41 12 -88 23 -105 26 -16 3 -38 10
-48 15 -9 6 -21 8 -25 6 -4 -3 -18 0 -32 6 -28 11 -36 14 -65 20 -11 3 -56 15
-100 26 -44 12 -90 24 -102 27 -12 2 -34 9 -48 14 -14 5 -25 7 -25 4 0 -2 -8
0 -18 5 -11 6 -31 12 -47 15 -15 3 -30 7 -33 10 -5 6 922 936 933 936 3 0 4
-4 1 -9z m-2161 -637 c55 -14 107 -28 115 -29 8 -2 15 -4 15 -5 0 -1 7 -3 15
-5 20 -5 158 -42 168 -45 4 -2 12 -4 17 -6 27 -9 252 -67 263 -67 6 0 12 -5
12 -10 0 -6 3 -8 6 -4 3 3 29 -1 57 -10 28 -8 58 -16 66 -18 9 -2 31 -9 50
-14 19 -6 37 -9 39 -6 3 3 10 1 16 -3 6 -5 49 -19 96 -31 47 -13 95 -27 108
-32 13 -5 29 -9 37 -9 7 0 25 -4 39 -10 24 -9 6 -29 -434 -467 -253 -252 -464
-459 -469 -461 -4 -1 -19 39 -33 90 -26 95 -186 678 -213 778 -8 30 -23 87
-34 125 -11 39 -29 111 -41 160 -11 50 -23 96 -25 103 -3 9 1 12 13 8 9 -3 62
-17 117 -32z m1290 -339 c11 -2 20 -4 20 -5 0 -1 7 -3 15 -5 8 -2 56 -16 105
-30 157 -46 254 -72 290 -79 11 -2 32 -9 48 -15 15 -6 27 -9 27 -7 0 2 21 -3
48 -11 26 -8 63 -19 82 -23 19 -5 62 -16 95 -25 33 -9 67 -19 75 -21 8 -2 33
-8 55 -14 92 -25 121 -33 135 -35 8 -1 22 -5 30 -8 19 -7 99 -29 124 -34 55
-10 47 -20 -406 -471 -248 -246 -459 -456 -469 -466 -15 -15 -19 -16 -19 -5 0
11 -88 349 -175 669 -6 21 -25 92 -29 110 -9 32 -59 221 -92 343 -19 70 -34
131 -34 136 0 7 16 7 75 -4z"/>
<path d="M4147 5623 c-704 -704 -652 -645 -632 -723 19 -69 114 -436 146 -560
37 -144 62 -233 76 -270 3 -8 8 -23 9 -32 2 -9 21 -81 43 -160 45 -167 87
-325 139 -532 41 -158 53 -179 112 -192 40 -9 55 -12 55 -14 0 -1 9 -3 20 -5
11 -2 47 -10 79 -19 33 -9 67 -18 75 -20 9 -2 23 -6 31 -9 12 -4 117 -32 275
-74 11 -3 28 -6 38 -6 9 -1 17 -4 17 -7 0 -4 6 -7 13 -8 21 -1 71 -12 87 -19
8 -3 21 -7 28 -9 7 -1 59 -14 115 -29 56 -15 113 -29 126 -32 13 -2 34 -9 45
-15 12 -6 22 -11 24 -10 3 3 25 -1 72 -12 19 -5 40 -12 45 -16 6 -4 17 -7 25
-7 8 0 60 -13 115 -27 55 -15 107 -29 115 -31 8 -2 17 -4 20 -5 3 -1 10 -3 15
-4 6 -1 17 -5 25 -8 12 -5 99 -29 120 -34 31 -6 69 -17 85 -25 11 -5 30 -8 43
-7 15 2 235 214 674 650 l651 649 -33 127 c-18 70 -35 134 -38 142 -3 8 -7 24
-9 35 -6 27 -9 37 -16 55 -3 8 -8 26 -10 40 -3 14 -15 59 -27 100 -11 41 -23
86 -26 98 -2 13 -11 47 -19 75 -8 29 -17 63 -20 77 -4 14 -9 31 -11 38 -2 7
-4 14 -5 17 0 2 -7 28 -15 57 -8 29 -17 60 -19 68 -14 57 -26 105 -44 170 -11
41 -23 86 -26 100 -4 14 -9 32 -12 40 -3 8 -7 22 -8 30 -3 15 -4 19 -29 108
-8 29 -15 55 -15 57 -1 3 -1 6 -2 8 -1 2 -5 21 -13 52 -2 11 -11 45 -20 75
-44 160 -56 206 -56 213 0 11 -35 23 -183 61 -163 42 -350 92 -397 106 -19 6
-154 42 -300 81 -346 92 -427 114 -535 144 -49 14 -99 27 -109 30 -10 2 -58
16 -106 29 -47 14 -106 28 -130 31 l-44 5 -649 -647z"/>
<path d="M1440 5210 c0 -11 -853 -868 -937 -942 l-52 -46 79 -298 c44 -165 84
-315 90 -334 27 -94 103 -383 140 -530 49 -200 50 -203 81 -206 35 -3 77 -13
134 -30 57 -17 338 -92 374 -100 14 -3 28 -7 33 -10 5 -3 21 -8 36 -10 15 -3
56 -13 92 -23 36 -11 79 -22 95 -27 17 -4 35 -9 40 -10 6 -2 19 -5 30 -8 11
-2 20 -5 20 -6 0 -1 11 -4 60 -14 6 -1 15 -5 21 -9 7 -4 29 -9 50 -13 20 -3
49 -10 63 -16 14 -5 37 -12 51 -14 14 -3 74 -19 134 -37 l108 -32 477 479
c262 263 486 488 499 499 30 27 28 34 -10 42 -31 6 -90 23 -163 45 -16 5 -41
11 -55 14 -14 3 -83 21 -155 41 -71 20 -140 38 -152 41 -12 2 -34 9 -48 14
-14 5 -25 7 -25 5 0 -2 -12 0 -26 5 -27 11 -135 41 -239 67 -80 20 -78 19 -95
26 -8 3 -44 13 -80 22 -84 21 -197 51 -235 62 -29 9 -27 12 453 493 265 266
482 487 482 490 0 6 -61 27 -100 35 -10 2 -48 12 -86 24 -38 11 -103 29 -144
40 -41 11 -232 63 -425 116 -192 52 -359 97 -370 100 -11 2 -68 17 -128 34
-122 35 -117 34 -117 21z m204 -77 c55 -14 107 -27 115 -29 9 -2 81 -22 161
-44 80 -23 188 -53 240 -67 52 -13 109 -28 125 -33 17 -4 116 -31 221 -58 200
-54 244 -68 244 -78 0 -7 0 -6 -376 -386 -334 -335 -540 -538 -547 -538 -5 0
-28 88 -27 103 0 4 -7 21 -15 37 -9 17 -13 30 -11 30 3 0 0 15 -5 33 -6 17
-12 39 -14 47 -1 8 -10 42 -20 75 -21 78 -36 134 -41 164 -3 14 -7 28 -10 33
-3 4 -7 16 -9 26 -1 9 -8 37 -15 62 -7 25 -14 52 -16 60 -14 57 -76 288 -81
300 -7 18 -10 28 -16 55 -15 64 -21 81 -30 93 -5 6 -7 12 -4 12 3 0 -2 29 -12
65 -10 35 -16 67 -13 70 6 6 24 2 156 -32z m-183 -26 c6 -23 13 -49 14 -57 2
-8 4 -15 5 -15 1 0 3 -10 6 -22 2 -12 22 -89 45 -170 22 -81 43 -158 45 -170
2 -12 9 -34 14 -48 5 -14 7 -25 4 -25 -3 0 -2 -6 3 -12 4 -7 9 -19 10 -25 5
-24 9 -38 16 -58 3 -11 8 -31 11 -45 3 -14 9 -40 15 -57 5 -18 7 -33 4 -33 -3
0 0 -6 6 -13 6 -8 12 -27 14 -43 2 -17 6 -34 9 -39 3 -6 9 -23 13 -40 5 -16 9
-34 11 -40 2 -5 5 -21 8 -34 3 -13 17 -63 30 -110 14 -47 27 -97 30 -111 2
-14 6 -32 8 -40 2 -9 -3 -14 -12 -12 -8 2 -26 6 -40 9 -14 2 -77 18 -140 35
-63 16 -122 31 -130 33 -25 6 -271 74 -325 90 -27 8 -63 17 -80 21 -16 4 -36
11 -42 17 -7 5 -13 7 -13 4 0 -2 -33 4 -72 15 -40 11 -109 28 -153 39 -152 35
-255 69 -255 84 0 11 916 923 922 919 4 -3 13 -24 19 -47z m-701 -987 c124
-34 233 -63 242 -65 10 -2 60 -15 111 -29 51 -14 102 -27 112 -29 11 -1 25 -6
31 -9 6 -4 21 -9 35 -11 13 -3 44 -11 69 -18 65 -18 86 -24 128 -33 9 -2 53
-14 97 -26 44 -13 104 -29 133 -37 47 -13 52 -17 40 -31 -7 -10 -215 -220
-463 -469 l-451 -452 -11 32 c-6 18 -19 59 -28 92 -9 33 -20 67 -23 75 -3 8
-7 24 -9 35 -2 11 -13 52 -24 90 -12 39 -23 77 -24 85 -2 8 -13 47 -23 85 -11
39 -37 133 -57 210 -20 77 -45 169 -55 205 -11 36 -21 76 -24 90 -3 14 -19 77
-35 140 -36 136 -37 143 -13 136 9 -3 118 -33 242 -66z m1238 -330 c64 -17
131 -35 148 -41 17 -5 40 -11 50 -14 10 -2 80 -20 154 -40 74 -20 142 -38 150
-40 8 -3 67 -18 130 -36 63 -17 126 -33 140 -36 14 -2 34 -9 45 -13 11 -5 47
-16 80 -24 98 -23 178 -45 204 -57 23 -10 3 -31 -437 -470 -254 -252 -466
-459 -472 -459 -5 0 -10 5 -10 10 0 13 1 9 -21 92 -11 40 -22 83 -25 95 -2 12
-9 35 -15 50 -6 16 -12 35 -15 43 -2 8 -8 33 -14 55 -6 22 -13 51 -16 65 -8
36 -10 43 -16 60 -12 30 -39 136 -43 163 -2 15 -7 32 -10 37 -4 6 -9 23 -11
38 -3 15 -21 83 -41 152 -19 69 -36 131 -36 138 0 6 -4 12 -9 12 -5 0 -7 4 -4
8 3 5 -2 31 -10 58 -9 27 -18 62 -20 77 -2 16 -6 32 -9 37 -3 4 -7 25 -11 45
-5 32 -3 37 11 31 9 -3 69 -20 133 -36z m-186 -5 c1 -11 6 -22 10 -25 4 -3 9
-17 11 -30 2 -14 6 -32 10 -40 5 -15 19 -66 23 -85 1 -5 3 -13 4 -17 1 -5 3
-11 5 -15 1 -5 4 -15 7 -23 3 -8 11 -37 18 -65 6 -27 16 -59 20 -70 8 -19 28
-94 34 -125 2 -8 6 -22 8 -30 11 -29 50 -175 54 -200 3 -14 11 -46 20 -71 8
-25 16 -55 18 -66 6 -30 57 -226 63 -243 6 -16 10 -31 17 -70 2 -14 7 -33 12
-44 6 -16 3 -17 -27 -12 -39 6 -74 14 -74 16 0 1 -9 3 -20 5 -27 5 -107 26
-125 33 -8 3 -26 7 -40 9 -14 2 -29 5 -35 7 -5 2 -13 4 -17 5 -4 1 -22 7 -40
12 -18 6 -41 12 -50 15 -23 5 -35 9 -148 39 -125 34 -117 32 -180 50 -30 8
-66 18 -80 21 -14 2 -34 8 -45 11 -25 8 -33 11 -66 17 -15 3 -43 13 -62 21
-20 8 -40 14 -44 13 -5 -1 -35 6 -68 16 -33 10 -65 19 -72 20 -7 1 -16 5 -19
9 -4 4 -15 7 -25 7 -10 0 -21 5 -25 11 -8 13 907 932 918 921 3 -4 8 -16 10
-27z"/>
</g>
</svg>
